%TF.GenerationSoftware,KiCad,Pcbnew,(5.1.6)-1*%
%TF.CreationDate,2020-08-13T15:20:14+01:00*%
%TF.ProjectId,current_sense,63757272-656e-4745-9f73-656e73652e6b,rev?*%
%TF.SameCoordinates,Original*%
%TF.FileFunction,Legend,Bot*%
%TF.FilePolarity,Positive*%
%FSLAX46Y46*%
G04 Gerber Fmt 4.6, Leading zero omitted, Abs format (unit mm)*
G04 Created by KiCad (PCBNEW (5.1.6)-1) date 2020-08-13 15:20:14*
%MOMM*%
%LPD*%
G01*
G04 APERTURE LIST*
%ADD10C,0.150000*%
G04 APERTURE END LIST*
D10*
X135547619Y-87882142D02*
X135595238Y-87929761D01*
X135738095Y-87977380D01*
X135833333Y-87977380D01*
X135976190Y-87929761D01*
X136071428Y-87834523D01*
X136119047Y-87739285D01*
X136166666Y-87548809D01*
X136166666Y-87405952D01*
X136119047Y-87215476D01*
X136071428Y-87120238D01*
X135976190Y-87025000D01*
X135833333Y-86977380D01*
X135738095Y-86977380D01*
X135595238Y-87025000D01*
X135547619Y-87072619D01*
X134690476Y-87310714D02*
X134690476Y-87977380D01*
X135119047Y-87310714D02*
X135119047Y-87834523D01*
X135071428Y-87929761D01*
X134976190Y-87977380D01*
X134833333Y-87977380D01*
X134738095Y-87929761D01*
X134690476Y-87882142D01*
X134214285Y-87977380D02*
X134214285Y-87310714D01*
X134214285Y-87501190D02*
X134166666Y-87405952D01*
X134119047Y-87358333D01*
X134023809Y-87310714D01*
X133928571Y-87310714D01*
X133595238Y-87977380D02*
X133595238Y-87310714D01*
X133595238Y-87501190D02*
X133547619Y-87405952D01*
X133500000Y-87358333D01*
X133404761Y-87310714D01*
X133309523Y-87310714D01*
X132595238Y-87929761D02*
X132690476Y-87977380D01*
X132880952Y-87977380D01*
X132976190Y-87929761D01*
X133023809Y-87834523D01*
X133023809Y-87453571D01*
X132976190Y-87358333D01*
X132880952Y-87310714D01*
X132690476Y-87310714D01*
X132595238Y-87358333D01*
X132547619Y-87453571D01*
X132547619Y-87548809D01*
X133023809Y-87644047D01*
X132119047Y-87310714D02*
X132119047Y-87977380D01*
X132119047Y-87405952D02*
X132071428Y-87358333D01*
X131976190Y-87310714D01*
X131833333Y-87310714D01*
X131738095Y-87358333D01*
X131690476Y-87453571D01*
X131690476Y-87977380D01*
X131357142Y-87310714D02*
X130976190Y-87310714D01*
X131214285Y-86977380D02*
X131214285Y-87834523D01*
X131166666Y-87929761D01*
X131071428Y-87977380D01*
X130976190Y-87977380D01*
X130690476Y-87929761D02*
X130547619Y-87977380D01*
X130309523Y-87977380D01*
X130214285Y-87929761D01*
X130166666Y-87882142D01*
X130119047Y-87786904D01*
X130119047Y-87691666D01*
X130166666Y-87596428D01*
X130214285Y-87548809D01*
X130309523Y-87501190D01*
X130500000Y-87453571D01*
X130595238Y-87405952D01*
X130642857Y-87358333D01*
X130690476Y-87263095D01*
X130690476Y-87167857D01*
X130642857Y-87072619D01*
X130595238Y-87025000D01*
X130500000Y-86977380D01*
X130261904Y-86977380D01*
X130119047Y-87025000D01*
X129309523Y-87929761D02*
X129404761Y-87977380D01*
X129595238Y-87977380D01*
X129690476Y-87929761D01*
X129738095Y-87834523D01*
X129738095Y-87453571D01*
X129690476Y-87358333D01*
X129595238Y-87310714D01*
X129404761Y-87310714D01*
X129309523Y-87358333D01*
X129261904Y-87453571D01*
X129261904Y-87548809D01*
X129738095Y-87644047D01*
X128833333Y-87310714D02*
X128833333Y-87977380D01*
X128833333Y-87405952D02*
X128785714Y-87358333D01*
X128690476Y-87310714D01*
X128547619Y-87310714D01*
X128452380Y-87358333D01*
X128404761Y-87453571D01*
X128404761Y-87977380D01*
X127976190Y-87929761D02*
X127880952Y-87977380D01*
X127690476Y-87977380D01*
X127595238Y-87929761D01*
X127547619Y-87834523D01*
X127547619Y-87786904D01*
X127595238Y-87691666D01*
X127690476Y-87644047D01*
X127833333Y-87644047D01*
X127928571Y-87596428D01*
X127976190Y-87501190D01*
X127976190Y-87453571D01*
X127928571Y-87358333D01*
X127833333Y-87310714D01*
X127690476Y-87310714D01*
X127595238Y-87358333D01*
X126738095Y-87929761D02*
X126833333Y-87977380D01*
X127023809Y-87977380D01*
X127119047Y-87929761D01*
X127166666Y-87834523D01*
X127166666Y-87453571D01*
X127119047Y-87358333D01*
X127023809Y-87310714D01*
X126833333Y-87310714D01*
X126738095Y-87358333D01*
X126690476Y-87453571D01*
X126690476Y-87548809D01*
X127166666Y-87644047D01*
X125547619Y-87691666D02*
X125071428Y-87691666D01*
X125642857Y-87977380D02*
X125309523Y-86977380D01*
X124976190Y-87977380D01*
X124214285Y-87977380D02*
X124214285Y-86977380D01*
X124214285Y-87929761D02*
X124309523Y-87977380D01*
X124500000Y-87977380D01*
X124595238Y-87929761D01*
X124642857Y-87882142D01*
X124690476Y-87786904D01*
X124690476Y-87501190D01*
X124642857Y-87405952D01*
X124595238Y-87358333D01*
X124500000Y-87310714D01*
X124309523Y-87310714D01*
X124214285Y-87358333D01*
X123309523Y-87977380D02*
X123309523Y-87453571D01*
X123357142Y-87358333D01*
X123452380Y-87310714D01*
X123642857Y-87310714D01*
X123738095Y-87358333D01*
X123309523Y-87929761D02*
X123404761Y-87977380D01*
X123642857Y-87977380D01*
X123738095Y-87929761D01*
X123785714Y-87834523D01*
X123785714Y-87739285D01*
X123738095Y-87644047D01*
X123642857Y-87596428D01*
X123404761Y-87596428D01*
X123309523Y-87548809D01*
X122833333Y-87310714D02*
X122833333Y-88310714D01*
X122833333Y-87358333D02*
X122738095Y-87310714D01*
X122547619Y-87310714D01*
X122452380Y-87358333D01*
X122404761Y-87405952D01*
X122357142Y-87501190D01*
X122357142Y-87786904D01*
X122404761Y-87882142D01*
X122452380Y-87929761D01*
X122547619Y-87977380D01*
X122738095Y-87977380D01*
X122833333Y-87929761D01*
X122071428Y-87310714D02*
X121690476Y-87310714D01*
X121928571Y-86977380D02*
X121928571Y-87834523D01*
X121880952Y-87929761D01*
X121785714Y-87977380D01*
X121690476Y-87977380D01*
X120976190Y-87929761D02*
X121071428Y-87977380D01*
X121261904Y-87977380D01*
X121357142Y-87929761D01*
X121404761Y-87834523D01*
X121404761Y-87453571D01*
X121357142Y-87358333D01*
X121261904Y-87310714D01*
X121071428Y-87310714D01*
X120976190Y-87358333D01*
X120928571Y-87453571D01*
X120928571Y-87548809D01*
X121404761Y-87644047D01*
X120500000Y-87977380D02*
X120500000Y-87310714D01*
X120500000Y-87501190D02*
X120452380Y-87405952D01*
X120404761Y-87358333D01*
X120309523Y-87310714D01*
X120214285Y-87310714D01*
X119214285Y-87310714D02*
X118976190Y-87977380D01*
X118738095Y-87310714D01*
X117833333Y-87977380D02*
X118404761Y-87977380D01*
X118119047Y-87977380D02*
X118119047Y-86977380D01*
X118214285Y-87120238D01*
X118309523Y-87215476D01*
X118404761Y-87263095D01*
X136857142Y-89532142D02*
X136904761Y-89579761D01*
X137047619Y-89627380D01*
X137142857Y-89627380D01*
X137285714Y-89579761D01*
X137380952Y-89484523D01*
X137428571Y-89389285D01*
X137476190Y-89198809D01*
X137476190Y-89055952D01*
X137428571Y-88865476D01*
X137380952Y-88770238D01*
X137285714Y-88675000D01*
X137142857Y-88627380D01*
X137047619Y-88627380D01*
X136904761Y-88675000D01*
X136857142Y-88722619D01*
X136285714Y-89627380D02*
X136380952Y-89579761D01*
X136428571Y-89532142D01*
X136476190Y-89436904D01*
X136476190Y-89151190D01*
X136428571Y-89055952D01*
X136380952Y-89008333D01*
X136285714Y-88960714D01*
X136142857Y-88960714D01*
X136047619Y-89008333D01*
X136000000Y-89055952D01*
X135952380Y-89151190D01*
X135952380Y-89436904D01*
X136000000Y-89532142D01*
X136047619Y-89579761D01*
X136142857Y-89627380D01*
X136285714Y-89627380D01*
X135523809Y-88960714D02*
X135523809Y-89960714D01*
X135523809Y-89008333D02*
X135428571Y-88960714D01*
X135238095Y-88960714D01*
X135142857Y-89008333D01*
X135095238Y-89055952D01*
X135047619Y-89151190D01*
X135047619Y-89436904D01*
X135095238Y-89532142D01*
X135142857Y-89579761D01*
X135238095Y-89627380D01*
X135428571Y-89627380D01*
X135523809Y-89579761D01*
X134714285Y-88960714D02*
X134476190Y-89627380D01*
X134238095Y-88960714D02*
X134476190Y-89627380D01*
X134571428Y-89865476D01*
X134619047Y-89913095D01*
X134714285Y-89960714D01*
X133857142Y-89627380D02*
X133857142Y-88960714D01*
X133857142Y-89151190D02*
X133809523Y-89055952D01*
X133761904Y-89008333D01*
X133666666Y-88960714D01*
X133571428Y-88960714D01*
X133238095Y-89627380D02*
X133238095Y-88960714D01*
X133238095Y-88627380D02*
X133285714Y-88675000D01*
X133238095Y-88722619D01*
X133190476Y-88675000D01*
X133238095Y-88627380D01*
X133238095Y-88722619D01*
X132333333Y-88960714D02*
X132333333Y-89770238D01*
X132380952Y-89865476D01*
X132428571Y-89913095D01*
X132523809Y-89960714D01*
X132666666Y-89960714D01*
X132761904Y-89913095D01*
X132333333Y-89579761D02*
X132428571Y-89627380D01*
X132619047Y-89627380D01*
X132714285Y-89579761D01*
X132761904Y-89532142D01*
X132809523Y-89436904D01*
X132809523Y-89151190D01*
X132761904Y-89055952D01*
X132714285Y-89008333D01*
X132619047Y-88960714D01*
X132428571Y-88960714D01*
X132333333Y-89008333D01*
X131857142Y-89627380D02*
X131857142Y-88627380D01*
X131428571Y-89627380D02*
X131428571Y-89103571D01*
X131476190Y-89008333D01*
X131571428Y-88960714D01*
X131714285Y-88960714D01*
X131809523Y-89008333D01*
X131857142Y-89055952D01*
X131095238Y-88960714D02*
X130714285Y-88960714D01*
X130952380Y-88627380D02*
X130952380Y-89484523D01*
X130904761Y-89579761D01*
X130809523Y-89627380D01*
X130714285Y-89627380D01*
X129666666Y-88722619D02*
X129619047Y-88675000D01*
X129523809Y-88627380D01*
X129285714Y-88627380D01*
X129190476Y-88675000D01*
X129142857Y-88722619D01*
X129095238Y-88817857D01*
X129095238Y-88913095D01*
X129142857Y-89055952D01*
X129714285Y-89627380D01*
X129095238Y-89627380D01*
X128476190Y-88627380D02*
X128380952Y-88627380D01*
X128285714Y-88675000D01*
X128238095Y-88722619D01*
X128190476Y-88817857D01*
X128142857Y-89008333D01*
X128142857Y-89246428D01*
X128190476Y-89436904D01*
X128238095Y-89532142D01*
X128285714Y-89579761D01*
X128380952Y-89627380D01*
X128476190Y-89627380D01*
X128571428Y-89579761D01*
X128619047Y-89532142D01*
X128666666Y-89436904D01*
X128714285Y-89246428D01*
X128714285Y-89008333D01*
X128666666Y-88817857D01*
X128619047Y-88722619D01*
X128571428Y-88675000D01*
X128476190Y-88627380D01*
X127761904Y-88722619D02*
X127714285Y-88675000D01*
X127619047Y-88627380D01*
X127380952Y-88627380D01*
X127285714Y-88675000D01*
X127238095Y-88722619D01*
X127190476Y-88817857D01*
X127190476Y-88913095D01*
X127238095Y-89055952D01*
X127809523Y-89627380D01*
X127190476Y-89627380D01*
X126571428Y-88627380D02*
X126476190Y-88627380D01*
X126380952Y-88675000D01*
X126333333Y-88722619D01*
X126285714Y-88817857D01*
X126238095Y-89008333D01*
X126238095Y-89246428D01*
X126285714Y-89436904D01*
X126333333Y-89532142D01*
X126380952Y-89579761D01*
X126476190Y-89627380D01*
X126571428Y-89627380D01*
X126666666Y-89579761D01*
X126714285Y-89532142D01*
X126761904Y-89436904D01*
X126809523Y-89246428D01*
X126809523Y-89008333D01*
X126761904Y-88817857D01*
X126714285Y-88722619D01*
X126666666Y-88675000D01*
X126571428Y-88627380D01*
X125047619Y-89627380D02*
X125047619Y-88627380D01*
X124714285Y-89341666D01*
X124380952Y-88627380D01*
X124380952Y-89627380D01*
X123476190Y-89627380D02*
X123476190Y-89103571D01*
X123523809Y-89008333D01*
X123619047Y-88960714D01*
X123809523Y-88960714D01*
X123904761Y-89008333D01*
X123476190Y-89579761D02*
X123571428Y-89627380D01*
X123809523Y-89627380D01*
X123904761Y-89579761D01*
X123952380Y-89484523D01*
X123952380Y-89389285D01*
X123904761Y-89294047D01*
X123809523Y-89246428D01*
X123571428Y-89246428D01*
X123476190Y-89198809D01*
X123142857Y-88960714D02*
X122761904Y-88960714D01*
X123000000Y-88627380D02*
X123000000Y-89484523D01*
X122952380Y-89579761D01*
X122857142Y-89627380D01*
X122761904Y-89627380D01*
X122571428Y-88960714D02*
X122190476Y-88960714D01*
X122428571Y-88627380D02*
X122428571Y-89484523D01*
X122380952Y-89579761D01*
X122285714Y-89627380D01*
X122190476Y-89627380D01*
X121857142Y-89627380D02*
X121857142Y-88627380D01*
X121428571Y-89627380D02*
X121428571Y-89103571D01*
X121476190Y-89008333D01*
X121571428Y-88960714D01*
X121714285Y-88960714D01*
X121809523Y-89008333D01*
X121857142Y-89055952D01*
X120571428Y-89579761D02*
X120666666Y-89627380D01*
X120857142Y-89627380D01*
X120952380Y-89579761D01*
X121000000Y-89484523D01*
X121000000Y-89103571D01*
X120952380Y-89008333D01*
X120857142Y-88960714D01*
X120666666Y-88960714D01*
X120571428Y-89008333D01*
X120523809Y-89103571D01*
X120523809Y-89198809D01*
X121000000Y-89294047D01*
X120190476Y-88960714D02*
X120000000Y-89627380D01*
X119809523Y-89151190D01*
X119619047Y-89627380D01*
X119428571Y-88960714D01*
X117809523Y-89627380D02*
X118285714Y-89627380D01*
X118285714Y-88627380D01*
X117047619Y-89627380D02*
X117047619Y-89103571D01*
X117095238Y-89008333D01*
X117190476Y-88960714D01*
X117380952Y-88960714D01*
X117476190Y-89008333D01*
X117047619Y-89579761D02*
X117142857Y-89627380D01*
X117380952Y-89627380D01*
X117476190Y-89579761D01*
X117523809Y-89484523D01*
X117523809Y-89389285D01*
X117476190Y-89294047D01*
X117380952Y-89246428D01*
X117142857Y-89246428D01*
X117047619Y-89198809D01*
X116571428Y-89627380D02*
X116571428Y-88960714D01*
X116571428Y-88627380D02*
X116619047Y-88675000D01*
X116571428Y-88722619D01*
X116523809Y-88675000D01*
X116571428Y-88627380D01*
X116571428Y-88722619D01*
X137785714Y-91277380D02*
X138261904Y-91277380D01*
X138261904Y-90277380D01*
X137452380Y-91277380D02*
X137452380Y-90610714D01*
X137452380Y-90277380D02*
X137500000Y-90325000D01*
X137452380Y-90372619D01*
X137404761Y-90325000D01*
X137452380Y-90277380D01*
X137452380Y-90372619D01*
X136547619Y-91229761D02*
X136642857Y-91277380D01*
X136833333Y-91277380D01*
X136928571Y-91229761D01*
X136976190Y-91182142D01*
X137023809Y-91086904D01*
X137023809Y-90801190D01*
X136976190Y-90705952D01*
X136928571Y-90658333D01*
X136833333Y-90610714D01*
X136642857Y-90610714D01*
X136547619Y-90658333D01*
X135738095Y-91229761D02*
X135833333Y-91277380D01*
X136023809Y-91277380D01*
X136119047Y-91229761D01*
X136166666Y-91134523D01*
X136166666Y-90753571D01*
X136119047Y-90658333D01*
X136023809Y-90610714D01*
X135833333Y-90610714D01*
X135738095Y-90658333D01*
X135690476Y-90753571D01*
X135690476Y-90848809D01*
X136166666Y-90944047D01*
X135261904Y-90610714D02*
X135261904Y-91277380D01*
X135261904Y-90705952D02*
X135214285Y-90658333D01*
X135119047Y-90610714D01*
X134976190Y-90610714D01*
X134880952Y-90658333D01*
X134833333Y-90753571D01*
X134833333Y-91277380D01*
X134404761Y-91229761D02*
X134309523Y-91277380D01*
X134119047Y-91277380D01*
X134023809Y-91229761D01*
X133976190Y-91134523D01*
X133976190Y-91086904D01*
X134023809Y-90991666D01*
X134119047Y-90944047D01*
X134261904Y-90944047D01*
X134357142Y-90896428D01*
X134404761Y-90801190D01*
X134404761Y-90753571D01*
X134357142Y-90658333D01*
X134261904Y-90610714D01*
X134119047Y-90610714D01*
X134023809Y-90658333D01*
X133166666Y-91229761D02*
X133261904Y-91277380D01*
X133452380Y-91277380D01*
X133547619Y-91229761D01*
X133595238Y-91134523D01*
X133595238Y-90753571D01*
X133547619Y-90658333D01*
X133452380Y-90610714D01*
X133261904Y-90610714D01*
X133166666Y-90658333D01*
X133119047Y-90753571D01*
X133119047Y-90848809D01*
X133595238Y-90944047D01*
X132261904Y-91277380D02*
X132261904Y-90277380D01*
X132261904Y-91229761D02*
X132357142Y-91277380D01*
X132547619Y-91277380D01*
X132642857Y-91229761D01*
X132690476Y-91182142D01*
X132738095Y-91086904D01*
X132738095Y-90801190D01*
X132690476Y-90705952D01*
X132642857Y-90658333D01*
X132547619Y-90610714D01*
X132357142Y-90610714D01*
X132261904Y-90658333D01*
X130595238Y-90610714D02*
X130595238Y-91277380D01*
X131023809Y-90610714D02*
X131023809Y-91134523D01*
X130976190Y-91229761D01*
X130880952Y-91277380D01*
X130738095Y-91277380D01*
X130642857Y-91229761D01*
X130595238Y-91182142D01*
X130119047Y-90610714D02*
X130119047Y-91277380D01*
X130119047Y-90705952D02*
X130071428Y-90658333D01*
X129976190Y-90610714D01*
X129833333Y-90610714D01*
X129738095Y-90658333D01*
X129690476Y-90753571D01*
X129690476Y-91277380D01*
X128785714Y-91277380D02*
X128785714Y-90277380D01*
X128785714Y-91229761D02*
X128880952Y-91277380D01*
X129071428Y-91277380D01*
X129166666Y-91229761D01*
X129214285Y-91182142D01*
X129261904Y-91086904D01*
X129261904Y-90801190D01*
X129214285Y-90705952D01*
X129166666Y-90658333D01*
X129071428Y-90610714D01*
X128880952Y-90610714D01*
X128785714Y-90658333D01*
X127928571Y-91229761D02*
X128023809Y-91277380D01*
X128214285Y-91277380D01*
X128309523Y-91229761D01*
X128357142Y-91134523D01*
X128357142Y-90753571D01*
X128309523Y-90658333D01*
X128214285Y-90610714D01*
X128023809Y-90610714D01*
X127928571Y-90658333D01*
X127880952Y-90753571D01*
X127880952Y-90848809D01*
X128357142Y-90944047D01*
X127452380Y-91277380D02*
X127452380Y-90610714D01*
X127452380Y-90801190D02*
X127404761Y-90705952D01*
X127357142Y-90658333D01*
X127261904Y-90610714D01*
X127166666Y-90610714D01*
X125500000Y-91182142D02*
X125547619Y-91229761D01*
X125690476Y-91277380D01*
X125785714Y-91277380D01*
X125928571Y-91229761D01*
X126023809Y-91134523D01*
X126071428Y-91039285D01*
X126119047Y-90848809D01*
X126119047Y-90705952D01*
X126071428Y-90515476D01*
X126023809Y-90420238D01*
X125928571Y-90325000D01*
X125785714Y-90277380D01*
X125690476Y-90277380D01*
X125547619Y-90325000D01*
X125500000Y-90372619D01*
X124500000Y-91182142D02*
X124547619Y-91229761D01*
X124690476Y-91277380D01*
X124785714Y-91277380D01*
X124928571Y-91229761D01*
X125023809Y-91134523D01*
X125071428Y-91039285D01*
X125119047Y-90848809D01*
X125119047Y-90705952D01*
X125071428Y-90515476D01*
X125023809Y-90420238D01*
X124928571Y-90325000D01*
X124785714Y-90277380D01*
X124690476Y-90277380D01*
X124547619Y-90325000D01*
X124500000Y-90372619D01*
X122976190Y-90753571D02*
X122833333Y-90801190D01*
X122785714Y-90848809D01*
X122738095Y-90944047D01*
X122738095Y-91086904D01*
X122785714Y-91182142D01*
X122833333Y-91229761D01*
X122928571Y-91277380D01*
X123309523Y-91277380D01*
X123309523Y-90277380D01*
X122976190Y-90277380D01*
X122880952Y-90325000D01*
X122833333Y-90372619D01*
X122785714Y-90467857D01*
X122785714Y-90563095D01*
X122833333Y-90658333D01*
X122880952Y-90705952D01*
X122976190Y-90753571D01*
X123309523Y-90753571D01*
X122119047Y-90801190D02*
X122119047Y-91277380D01*
X122452380Y-90277380D02*
X122119047Y-90801190D01*
X121785714Y-90277380D01*
X121452380Y-90896428D02*
X120690476Y-90896428D01*
X120261904Y-91229761D02*
X120119047Y-91277380D01*
X119880952Y-91277380D01*
X119785714Y-91229761D01*
X119738095Y-91182142D01*
X119690476Y-91086904D01*
X119690476Y-90991666D01*
X119738095Y-90896428D01*
X119785714Y-90848809D01*
X119880952Y-90801190D01*
X120071428Y-90753571D01*
X120166666Y-90705952D01*
X120214285Y-90658333D01*
X120261904Y-90563095D01*
X120261904Y-90467857D01*
X120214285Y-90372619D01*
X120166666Y-90325000D01*
X120071428Y-90277380D01*
X119833333Y-90277380D01*
X119690476Y-90325000D01*
X119309523Y-90991666D02*
X118833333Y-90991666D01*
X119404761Y-91277380D02*
X119071428Y-90277380D01*
X118738095Y-91277380D01*
X117690476Y-90372619D02*
X117642857Y-90325000D01*
X117547619Y-90277380D01*
X117309523Y-90277380D01*
X117214285Y-90325000D01*
X117166666Y-90372619D01*
X117119047Y-90467857D01*
X117119047Y-90563095D01*
X117166666Y-90705952D01*
X117738095Y-91277380D01*
X117119047Y-91277380D01*
X116690476Y-91182142D02*
X116642857Y-91229761D01*
X116690476Y-91277380D01*
X116738095Y-91229761D01*
X116690476Y-91182142D01*
X116690476Y-91277380D01*
X116023809Y-90277380D02*
X115928571Y-90277380D01*
X115833333Y-90325000D01*
X115785714Y-90372619D01*
X115738095Y-90467857D01*
X115690476Y-90658333D01*
X115690476Y-90896428D01*
X115738095Y-91086904D01*
X115785714Y-91182142D01*
X115833333Y-91229761D01*
X115928571Y-91277380D01*
X116023809Y-91277380D01*
X116119047Y-91229761D01*
X116166666Y-91182142D01*
X116214285Y-91086904D01*
X116261904Y-90896428D01*
X116261904Y-90658333D01*
X116214285Y-90467857D01*
X116166666Y-90372619D01*
X116119047Y-90325000D01*
X116023809Y-90277380D01*
X148500000Y-92879761D02*
X148357142Y-92927380D01*
X148119047Y-92927380D01*
X148023809Y-92879761D01*
X147976190Y-92832142D01*
X147928571Y-92736904D01*
X147928571Y-92641666D01*
X147976190Y-92546428D01*
X148023809Y-92498809D01*
X148119047Y-92451190D01*
X148309523Y-92403571D01*
X148404761Y-92355952D01*
X148452380Y-92308333D01*
X148500000Y-92213095D01*
X148500000Y-92117857D01*
X148452380Y-92022619D01*
X148404761Y-91975000D01*
X148309523Y-91927380D01*
X148071428Y-91927380D01*
X147928571Y-91975000D01*
X147119047Y-92879761D02*
X147214285Y-92927380D01*
X147404761Y-92927380D01*
X147500000Y-92879761D01*
X147547619Y-92784523D01*
X147547619Y-92403571D01*
X147500000Y-92308333D01*
X147404761Y-92260714D01*
X147214285Y-92260714D01*
X147119047Y-92308333D01*
X147071428Y-92403571D01*
X147071428Y-92498809D01*
X147547619Y-92594047D01*
X146261904Y-92879761D02*
X146357142Y-92927380D01*
X146547619Y-92927380D01*
X146642857Y-92879761D01*
X146690476Y-92784523D01*
X146690476Y-92403571D01*
X146642857Y-92308333D01*
X146547619Y-92260714D01*
X146357142Y-92260714D01*
X146261904Y-92308333D01*
X146214285Y-92403571D01*
X146214285Y-92498809D01*
X146690476Y-92594047D01*
X145785714Y-92832142D02*
X145738095Y-92879761D01*
X145785714Y-92927380D01*
X145833333Y-92879761D01*
X145785714Y-92832142D01*
X145785714Y-92927380D01*
X145785714Y-92308333D02*
X145738095Y-92355952D01*
X145785714Y-92403571D01*
X145833333Y-92355952D01*
X145785714Y-92308333D01*
X145785714Y-92403571D01*
X144547619Y-92927380D02*
X144547619Y-91927380D01*
X144119047Y-92927380D02*
X144119047Y-92403571D01*
X144166666Y-92308333D01*
X144261904Y-92260714D01*
X144404761Y-92260714D01*
X144500000Y-92308333D01*
X144547619Y-92355952D01*
X143785714Y-92260714D02*
X143404761Y-92260714D01*
X143642857Y-91927380D02*
X143642857Y-92784523D01*
X143595238Y-92879761D01*
X143500000Y-92927380D01*
X143404761Y-92927380D01*
X143214285Y-92260714D02*
X142833333Y-92260714D01*
X143071428Y-91927380D02*
X143071428Y-92784523D01*
X143023809Y-92879761D01*
X142928571Y-92927380D01*
X142833333Y-92927380D01*
X142500000Y-92260714D02*
X142500000Y-93260714D01*
X142500000Y-92308333D02*
X142404761Y-92260714D01*
X142214285Y-92260714D01*
X142119047Y-92308333D01*
X142071428Y-92355952D01*
X142023809Y-92451190D01*
X142023809Y-92736904D01*
X142071428Y-92832142D01*
X142119047Y-92879761D01*
X142214285Y-92927380D01*
X142404761Y-92927380D01*
X142500000Y-92879761D01*
X141642857Y-92879761D02*
X141547619Y-92927380D01*
X141357142Y-92927380D01*
X141261904Y-92879761D01*
X141214285Y-92784523D01*
X141214285Y-92736904D01*
X141261904Y-92641666D01*
X141357142Y-92594047D01*
X141500000Y-92594047D01*
X141595238Y-92546428D01*
X141642857Y-92451190D01*
X141642857Y-92403571D01*
X141595238Y-92308333D01*
X141500000Y-92260714D01*
X141357142Y-92260714D01*
X141261904Y-92308333D01*
X140785714Y-92832142D02*
X140738095Y-92879761D01*
X140785714Y-92927380D01*
X140833333Y-92879761D01*
X140785714Y-92832142D01*
X140785714Y-92927380D01*
X140785714Y-92308333D02*
X140738095Y-92355952D01*
X140785714Y-92403571D01*
X140833333Y-92355952D01*
X140785714Y-92308333D01*
X140785714Y-92403571D01*
X139595238Y-91879761D02*
X140452380Y-93165476D01*
X138547619Y-91879761D02*
X139404761Y-93165476D01*
X137785714Y-92879761D02*
X137880952Y-92927380D01*
X138071428Y-92927380D01*
X138166666Y-92879761D01*
X138214285Y-92832142D01*
X138261904Y-92736904D01*
X138261904Y-92451190D01*
X138214285Y-92355952D01*
X138166666Y-92308333D01*
X138071428Y-92260714D01*
X137880952Y-92260714D01*
X137785714Y-92308333D01*
X137357142Y-92927380D02*
X137357142Y-92260714D01*
X137357142Y-92451190D02*
X137309523Y-92355952D01*
X137261904Y-92308333D01*
X137166666Y-92260714D01*
X137071428Y-92260714D01*
X136357142Y-92879761D02*
X136452380Y-92927380D01*
X136642857Y-92927380D01*
X136738095Y-92879761D01*
X136785714Y-92784523D01*
X136785714Y-92403571D01*
X136738095Y-92308333D01*
X136642857Y-92260714D01*
X136452380Y-92260714D01*
X136357142Y-92308333D01*
X136309523Y-92403571D01*
X136309523Y-92498809D01*
X136785714Y-92594047D01*
X135452380Y-92927380D02*
X135452380Y-92403571D01*
X135500000Y-92308333D01*
X135595238Y-92260714D01*
X135785714Y-92260714D01*
X135880952Y-92308333D01*
X135452380Y-92879761D02*
X135547619Y-92927380D01*
X135785714Y-92927380D01*
X135880952Y-92879761D01*
X135928571Y-92784523D01*
X135928571Y-92689285D01*
X135880952Y-92594047D01*
X135785714Y-92546428D01*
X135547619Y-92546428D01*
X135452380Y-92498809D01*
X135119047Y-92260714D02*
X134738095Y-92260714D01*
X134976190Y-91927380D02*
X134976190Y-92784523D01*
X134928571Y-92879761D01*
X134833333Y-92927380D01*
X134738095Y-92927380D01*
X134404761Y-92927380D02*
X134404761Y-92260714D01*
X134404761Y-91927380D02*
X134452380Y-91975000D01*
X134404761Y-92022619D01*
X134357142Y-91975000D01*
X134404761Y-91927380D01*
X134404761Y-92022619D01*
X134023809Y-92260714D02*
X133785714Y-92927380D01*
X133547619Y-92260714D01*
X132785714Y-92879761D02*
X132880952Y-92927380D01*
X133071428Y-92927380D01*
X133166666Y-92879761D01*
X133214285Y-92784523D01*
X133214285Y-92403571D01*
X133166666Y-92308333D01*
X133071428Y-92260714D01*
X132880952Y-92260714D01*
X132785714Y-92308333D01*
X132738095Y-92403571D01*
X132738095Y-92498809D01*
X133214285Y-92594047D01*
X131880952Y-92879761D02*
X131976190Y-92927380D01*
X132166666Y-92927380D01*
X132261904Y-92879761D01*
X132309523Y-92832142D01*
X132357142Y-92736904D01*
X132357142Y-92451190D01*
X132309523Y-92355952D01*
X132261904Y-92308333D01*
X132166666Y-92260714D01*
X131976190Y-92260714D01*
X131880952Y-92308333D01*
X131309523Y-92927380D02*
X131404761Y-92879761D01*
X131452380Y-92832142D01*
X131499999Y-92736904D01*
X131499999Y-92451190D01*
X131452380Y-92355952D01*
X131404761Y-92308333D01*
X131309523Y-92260714D01*
X131166666Y-92260714D01*
X131071428Y-92308333D01*
X131023809Y-92355952D01*
X130976190Y-92451190D01*
X130976190Y-92736904D01*
X131023809Y-92832142D01*
X131071428Y-92879761D01*
X131166666Y-92927380D01*
X131309523Y-92927380D01*
X130547619Y-92927380D02*
X130547619Y-92260714D01*
X130547619Y-92355952D02*
X130499999Y-92308333D01*
X130404761Y-92260714D01*
X130261904Y-92260714D01*
X130166666Y-92308333D01*
X130119047Y-92403571D01*
X130119047Y-92927380D01*
X130119047Y-92403571D02*
X130071428Y-92308333D01*
X129976190Y-92260714D01*
X129833333Y-92260714D01*
X129738095Y-92308333D01*
X129690476Y-92403571D01*
X129690476Y-92927380D01*
X129214285Y-92927380D02*
X129214285Y-92260714D01*
X129214285Y-92355952D02*
X129166666Y-92308333D01*
X129071428Y-92260714D01*
X128928571Y-92260714D01*
X128833333Y-92308333D01*
X128785714Y-92403571D01*
X128785714Y-92927380D01*
X128785714Y-92403571D02*
X128738095Y-92308333D01*
X128642857Y-92260714D01*
X128500000Y-92260714D01*
X128404761Y-92308333D01*
X128357142Y-92403571D01*
X128357142Y-92927380D01*
X127738095Y-92927380D02*
X127833333Y-92879761D01*
X127880952Y-92832142D01*
X127928571Y-92736904D01*
X127928571Y-92451190D01*
X127880952Y-92355952D01*
X127833333Y-92308333D01*
X127738095Y-92260714D01*
X127595238Y-92260714D01*
X127500000Y-92308333D01*
X127452380Y-92355952D01*
X127404761Y-92451190D01*
X127404761Y-92736904D01*
X127452380Y-92832142D01*
X127500000Y-92879761D01*
X127595238Y-92927380D01*
X127738095Y-92927380D01*
X126976190Y-92260714D02*
X126976190Y-92927380D01*
X126976190Y-92355952D02*
X126928571Y-92308333D01*
X126833333Y-92260714D01*
X126690476Y-92260714D01*
X126595238Y-92308333D01*
X126547619Y-92403571D01*
X126547619Y-92927380D01*
X126119047Y-92879761D02*
X126023809Y-92927380D01*
X125833333Y-92927380D01*
X125738095Y-92879761D01*
X125690476Y-92784523D01*
X125690476Y-92736904D01*
X125738095Y-92641666D01*
X125833333Y-92594047D01*
X125976190Y-92594047D01*
X126071428Y-92546428D01*
X126119047Y-92451190D01*
X126119047Y-92403571D01*
X126071428Y-92308333D01*
X125976190Y-92260714D01*
X125833333Y-92260714D01*
X125738095Y-92308333D01*
X125261904Y-92832142D02*
X125214285Y-92879761D01*
X125261904Y-92927380D01*
X125309523Y-92879761D01*
X125261904Y-92832142D01*
X125261904Y-92927380D01*
X124642857Y-92927380D02*
X124738095Y-92879761D01*
X124785714Y-92832142D01*
X124833333Y-92736904D01*
X124833333Y-92451190D01*
X124785714Y-92355952D01*
X124738095Y-92308333D01*
X124642857Y-92260714D01*
X124500000Y-92260714D01*
X124404761Y-92308333D01*
X124357142Y-92355952D01*
X124309523Y-92451190D01*
X124309523Y-92736904D01*
X124357142Y-92832142D01*
X124404761Y-92879761D01*
X124500000Y-92927380D01*
X124642857Y-92927380D01*
X123880952Y-92927380D02*
X123880952Y-92260714D01*
X123880952Y-92451190D02*
X123833333Y-92355952D01*
X123785714Y-92308333D01*
X123690476Y-92260714D01*
X123595238Y-92260714D01*
X122833333Y-92260714D02*
X122833333Y-93070238D01*
X122880952Y-93165476D01*
X122928571Y-93213095D01*
X123023809Y-93260714D01*
X123166666Y-93260714D01*
X123261904Y-93213095D01*
X122833333Y-92879761D02*
X122928571Y-92927380D01*
X123119047Y-92927380D01*
X123214285Y-92879761D01*
X123261904Y-92832142D01*
X123309523Y-92736904D01*
X123309523Y-92451190D01*
X123261904Y-92355952D01*
X123214285Y-92308333D01*
X123119047Y-92260714D01*
X122928571Y-92260714D01*
X122833333Y-92308333D01*
X121642857Y-91879761D02*
X122500000Y-93165476D01*
X121166666Y-92927380D02*
X121261904Y-92879761D01*
X121309523Y-92784523D01*
X121309523Y-91927380D01*
X120785714Y-92927380D02*
X120785714Y-92260714D01*
X120785714Y-91927380D02*
X120833333Y-91975000D01*
X120785714Y-92022619D01*
X120738095Y-91975000D01*
X120785714Y-91927380D01*
X120785714Y-92022619D01*
X119880952Y-92879761D02*
X119976190Y-92927380D01*
X120166666Y-92927380D01*
X120261904Y-92879761D01*
X120309523Y-92832142D01*
X120357142Y-92736904D01*
X120357142Y-92451190D01*
X120309523Y-92355952D01*
X120261904Y-92308333D01*
X120166666Y-92260714D01*
X119976190Y-92260714D01*
X119880952Y-92308333D01*
X119071428Y-92879761D02*
X119166666Y-92927380D01*
X119357142Y-92927380D01*
X119452380Y-92879761D01*
X119500000Y-92784523D01*
X119500000Y-92403571D01*
X119452380Y-92308333D01*
X119357142Y-92260714D01*
X119166666Y-92260714D01*
X119071428Y-92308333D01*
X119023809Y-92403571D01*
X119023809Y-92498809D01*
X119500000Y-92594047D01*
X118595238Y-92260714D02*
X118595238Y-92927380D01*
X118595238Y-92355952D02*
X118547619Y-92308333D01*
X118452380Y-92260714D01*
X118309523Y-92260714D01*
X118214285Y-92308333D01*
X118166666Y-92403571D01*
X118166666Y-92927380D01*
X117738095Y-92879761D02*
X117642857Y-92927380D01*
X117452380Y-92927380D01*
X117357142Y-92879761D01*
X117309523Y-92784523D01*
X117309523Y-92736904D01*
X117357142Y-92641666D01*
X117452380Y-92594047D01*
X117595238Y-92594047D01*
X117690476Y-92546428D01*
X117738095Y-92451190D01*
X117738095Y-92403571D01*
X117690476Y-92308333D01*
X117595238Y-92260714D01*
X117452380Y-92260714D01*
X117357142Y-92308333D01*
X116500000Y-92879761D02*
X116595238Y-92927380D01*
X116785714Y-92927380D01*
X116880952Y-92879761D01*
X116928571Y-92784523D01*
X116928571Y-92403571D01*
X116880952Y-92308333D01*
X116785714Y-92260714D01*
X116595238Y-92260714D01*
X116500000Y-92308333D01*
X116452380Y-92403571D01*
X116452380Y-92498809D01*
X116928571Y-92594047D01*
X116071428Y-92879761D02*
X115976190Y-92927380D01*
X115785714Y-92927380D01*
X115690476Y-92879761D01*
X115642857Y-92784523D01*
X115642857Y-92736904D01*
X115690476Y-92641666D01*
X115785714Y-92594047D01*
X115928571Y-92594047D01*
X116023809Y-92546428D01*
X116071428Y-92451190D01*
X116071428Y-92403571D01*
X116023809Y-92308333D01*
X115928571Y-92260714D01*
X115785714Y-92260714D01*
X115690476Y-92308333D01*
X114500000Y-91879761D02*
X115357142Y-93165476D01*
X114166666Y-92927380D02*
X114166666Y-91927380D01*
X114166666Y-92308333D02*
X114071428Y-92260714D01*
X113880952Y-92260714D01*
X113785714Y-92308333D01*
X113738095Y-92355952D01*
X113690476Y-92451190D01*
X113690476Y-92736904D01*
X113738095Y-92832142D01*
X113785714Y-92879761D01*
X113880952Y-92927380D01*
X114071428Y-92927380D01*
X114166666Y-92879761D01*
X113357142Y-92260714D02*
X113119047Y-92927380D01*
X112880952Y-92260714D02*
X113119047Y-92927380D01*
X113214285Y-93165476D01*
X113261904Y-93213095D01*
X113357142Y-93260714D01*
X112500000Y-92546428D02*
X111738095Y-92546428D01*
X111309523Y-92879761D02*
X111214285Y-92927380D01*
X111023809Y-92927380D01*
X110928571Y-92879761D01*
X110880952Y-92784523D01*
X110880952Y-92736904D01*
X110928571Y-92641666D01*
X111023809Y-92594047D01*
X111166666Y-92594047D01*
X111261904Y-92546428D01*
X111309523Y-92451190D01*
X111309523Y-92403571D01*
X111261904Y-92308333D01*
X111166666Y-92260714D01*
X111023809Y-92260714D01*
X110928571Y-92308333D01*
X110023809Y-92927380D02*
X110023809Y-92403571D01*
X110071428Y-92308333D01*
X110166666Y-92260714D01*
X110357142Y-92260714D01*
X110452380Y-92308333D01*
X110023809Y-92879761D02*
X110119047Y-92927380D01*
X110357142Y-92927380D01*
X110452380Y-92879761D01*
X110500000Y-92784523D01*
X110500000Y-92689285D01*
X110452380Y-92594047D01*
X110357142Y-92546428D01*
X110119047Y-92546428D01*
X110023809Y-92498809D01*
X108833333Y-91879761D02*
X109690476Y-93165476D01*
X108547619Y-92022619D02*
X108500000Y-91975000D01*
X108404761Y-91927380D01*
X108166666Y-91927380D01*
X108071428Y-91975000D01*
X108023809Y-92022619D01*
X107976190Y-92117857D01*
X107976190Y-92213095D01*
X108023809Y-92355952D01*
X108595238Y-92927380D01*
X107976190Y-92927380D01*
X107547619Y-92832142D02*
X107500000Y-92879761D01*
X107547619Y-92927380D01*
X107595238Y-92879761D01*
X107547619Y-92832142D01*
X107547619Y-92927380D01*
X106880952Y-91927380D02*
X106785714Y-91927380D01*
X106690476Y-91975000D01*
X106642857Y-92022619D01*
X106595238Y-92117857D01*
X106547619Y-92308333D01*
X106547619Y-92546428D01*
X106595238Y-92736904D01*
X106642857Y-92832142D01*
X106690476Y-92879761D01*
X106785714Y-92927380D01*
X106880952Y-92927380D01*
X106976190Y-92879761D01*
X107023809Y-92832142D01*
X107071428Y-92736904D01*
X107119047Y-92546428D01*
X107119047Y-92308333D01*
X107071428Y-92117857D01*
X107023809Y-92022619D01*
X106976190Y-91975000D01*
X106880952Y-91927380D01*
X105404761Y-91879761D02*
X106261904Y-93165476D01*
M02*
