%TF.GenerationSoftware,KiCad,Pcbnew,5.1.6-c6e7f7d~87~ubuntu18.04.1*%
%TF.CreationDate,2020-08-03T15:12:15+01:00*%
%TF.ProjectId,current_sense,63757272-656e-4745-9f73-656e73652e6b,rev?*%
%TF.SameCoordinates,Original*%
%TF.FileFunction,Legend,Top*%
%TF.FilePolarity,Positive*%
%FSLAX46Y46*%
G04 Gerber Fmt 4.6, Leading zero omitted, Abs format (unit mm)*
G04 Created by KiCad (PCBNEW 5.1.6-c6e7f7d~87~ubuntu18.04.1) date 2020-08-03 15:12:15*
%MOMM*%
%LPD*%
G01*
G04 APERTURE LIST*
%ADD10C,0.150000*%
%ADD11C,0.120000*%
G04 APERTURE END LIST*
D10*
X127674952Y-103005380D02*
X127674952Y-102005380D01*
X128103523Y-102957761D02*
X128198761Y-103005380D01*
X128389238Y-103005380D01*
X128484476Y-102957761D01*
X128532095Y-102862523D01*
X128532095Y-102814904D01*
X128484476Y-102719666D01*
X128389238Y-102672047D01*
X128246380Y-102672047D01*
X128151142Y-102624428D01*
X128103523Y-102529190D01*
X128103523Y-102481571D01*
X128151142Y-102386333D01*
X128246380Y-102338714D01*
X128389238Y-102338714D01*
X128484476Y-102386333D01*
X129341619Y-102957761D02*
X129246380Y-103005380D01*
X129055904Y-103005380D01*
X128960666Y-102957761D01*
X128913047Y-102862523D01*
X128913047Y-102481571D01*
X128960666Y-102386333D01*
X129055904Y-102338714D01*
X129246380Y-102338714D01*
X129341619Y-102386333D01*
X129389238Y-102481571D01*
X129389238Y-102576809D01*
X128913047Y-102672047D01*
X129817809Y-102338714D02*
X129817809Y-103005380D01*
X129817809Y-102433952D02*
X129865428Y-102386333D01*
X129960666Y-102338714D01*
X130103523Y-102338714D01*
X130198761Y-102386333D01*
X130246380Y-102481571D01*
X130246380Y-103005380D01*
X130674952Y-102957761D02*
X130770190Y-103005380D01*
X130960666Y-103005380D01*
X131055904Y-102957761D01*
X131103523Y-102862523D01*
X131103523Y-102814904D01*
X131055904Y-102719666D01*
X130960666Y-102672047D01*
X130817809Y-102672047D01*
X130722571Y-102624428D01*
X130674952Y-102529190D01*
X130674952Y-102481571D01*
X130722571Y-102386333D01*
X130817809Y-102338714D01*
X130960666Y-102338714D01*
X131055904Y-102386333D01*
X131913047Y-102957761D02*
X131817809Y-103005380D01*
X131627333Y-103005380D01*
X131532095Y-102957761D01*
X131484476Y-102862523D01*
X131484476Y-102481571D01*
X131532095Y-102386333D01*
X131627333Y-102338714D01*
X131817809Y-102338714D01*
X131913047Y-102386333D01*
X131960666Y-102481571D01*
X131960666Y-102576809D01*
X131484476Y-102672047D01*
X127555904Y-104274428D02*
X128317809Y-104274428D01*
X129317809Y-104655380D02*
X128746380Y-104655380D01*
X129032095Y-104655380D02*
X129032095Y-103655380D01*
X128936857Y-103798238D01*
X128841619Y-103893476D01*
X128746380Y-103941095D01*
X129603523Y-103655380D02*
X129936857Y-104655380D01*
X130270190Y-103655380D01*
X131317809Y-103607761D02*
X130460666Y-104893476D01*
X131603523Y-104369666D02*
X132079714Y-104369666D01*
X131508285Y-104655380D02*
X131841619Y-103655380D01*
X132174952Y-104655380D01*
X135857142Y-76452380D02*
X136190476Y-77452380D01*
X136523809Y-76452380D01*
X136857142Y-77452380D02*
X136857142Y-76452380D01*
X136857142Y-76833333D02*
X136952380Y-76785714D01*
X137142857Y-76785714D01*
X137238095Y-76833333D01*
X137285714Y-76880952D01*
X137333333Y-76976190D01*
X137333333Y-77261904D01*
X137285714Y-77357142D01*
X137238095Y-77404761D01*
X137142857Y-77452380D01*
X136952380Y-77452380D01*
X136857142Y-77404761D01*
X138190476Y-76785714D02*
X138190476Y-77452380D01*
X137761904Y-76785714D02*
X137761904Y-77309523D01*
X137809523Y-77404761D01*
X137904761Y-77452380D01*
X138047619Y-77452380D01*
X138142857Y-77404761D01*
X138190476Y-77357142D01*
X138619047Y-77404761D02*
X138714285Y-77452380D01*
X138904761Y-77452380D01*
X139000000Y-77404761D01*
X139047619Y-77309523D01*
X139047619Y-77261904D01*
X139000000Y-77166666D01*
X138904761Y-77119047D01*
X138761904Y-77119047D01*
X138666666Y-77071428D01*
X138619047Y-76976190D01*
X138619047Y-76928571D01*
X138666666Y-76833333D01*
X138761904Y-76785714D01*
X138904761Y-76785714D01*
X139000000Y-76833333D01*
X136738095Y-103000000D02*
X136642857Y-102952380D01*
X136500000Y-102952380D01*
X136357142Y-103000000D01*
X136261904Y-103095238D01*
X136214285Y-103190476D01*
X136166666Y-103380952D01*
X136166666Y-103523809D01*
X136214285Y-103714285D01*
X136261904Y-103809523D01*
X136357142Y-103904761D01*
X136500000Y-103952380D01*
X136595238Y-103952380D01*
X136738095Y-103904761D01*
X136785714Y-103857142D01*
X136785714Y-103523809D01*
X136595238Y-103523809D01*
X137214285Y-103952380D02*
X137214285Y-102952380D01*
X137785714Y-103952380D01*
X137785714Y-102952380D01*
X138261904Y-103952380D02*
X138261904Y-102952380D01*
X138500000Y-102952380D01*
X138642857Y-103000000D01*
X138738095Y-103095238D01*
X138785714Y-103190476D01*
X138833333Y-103380952D01*
X138833333Y-103523809D01*
X138785714Y-103714285D01*
X138738095Y-103809523D01*
X138642857Y-103904761D01*
X138500000Y-103952380D01*
X138261904Y-103952380D01*
X127880952Y-76127380D02*
X127880952Y-75127380D01*
X128309523Y-76079761D02*
X128404761Y-76127380D01*
X128595238Y-76127380D01*
X128690476Y-76079761D01*
X128738095Y-75984523D01*
X128738095Y-75936904D01*
X128690476Y-75841666D01*
X128595238Y-75794047D01*
X128452380Y-75794047D01*
X128357142Y-75746428D01*
X128309523Y-75651190D01*
X128309523Y-75603571D01*
X128357142Y-75508333D01*
X128452380Y-75460714D01*
X128595238Y-75460714D01*
X128690476Y-75508333D01*
X129547619Y-76079761D02*
X129452380Y-76127380D01*
X129261904Y-76127380D01*
X129166666Y-76079761D01*
X129119047Y-75984523D01*
X129119047Y-75603571D01*
X129166666Y-75508333D01*
X129261904Y-75460714D01*
X129452380Y-75460714D01*
X129547619Y-75508333D01*
X129595238Y-75603571D01*
X129595238Y-75698809D01*
X129119047Y-75794047D01*
X130023809Y-75460714D02*
X130023809Y-76127380D01*
X130023809Y-75555952D02*
X130071428Y-75508333D01*
X130166666Y-75460714D01*
X130309523Y-75460714D01*
X130404761Y-75508333D01*
X130452380Y-75603571D01*
X130452380Y-76127380D01*
X130880952Y-76079761D02*
X130976190Y-76127380D01*
X131166666Y-76127380D01*
X131261904Y-76079761D01*
X131309523Y-75984523D01*
X131309523Y-75936904D01*
X131261904Y-75841666D01*
X131166666Y-75794047D01*
X131023809Y-75794047D01*
X130928571Y-75746428D01*
X130880952Y-75651190D01*
X130880952Y-75603571D01*
X130928571Y-75508333D01*
X131023809Y-75460714D01*
X131166666Y-75460714D01*
X131261904Y-75508333D01*
X132119047Y-76079761D02*
X132023809Y-76127380D01*
X131833333Y-76127380D01*
X131738095Y-76079761D01*
X131690476Y-75984523D01*
X131690476Y-75603571D01*
X131738095Y-75508333D01*
X131833333Y-75460714D01*
X132023809Y-75460714D01*
X132119047Y-75508333D01*
X132166666Y-75603571D01*
X132166666Y-75698809D01*
X131690476Y-75794047D01*
X128904761Y-77777380D02*
X128333333Y-77777380D01*
X128619047Y-77777380D02*
X128619047Y-76777380D01*
X128523809Y-76920238D01*
X128428571Y-77015476D01*
X128333333Y-77063095D01*
X129190476Y-76777380D02*
X129523809Y-77777380D01*
X129857142Y-76777380D01*
X130904761Y-76729761D02*
X130047619Y-78015476D01*
X131190476Y-77491666D02*
X131666666Y-77491666D01*
X131095238Y-77777380D02*
X131428571Y-76777380D01*
X131761904Y-77777380D01*
D11*
%TO.C,TP4*%
X131700000Y-100000000D02*
G75*
G03*
X131700000Y-100000000I-1700000J0D01*
G01*
%TO.C,TP3*%
X139200000Y-80000000D02*
G75*
G03*
X139200000Y-80000000I-1700000J0D01*
G01*
%TO.C,TP2*%
X139200000Y-100000000D02*
G75*
G03*
X139200000Y-100000000I-1700000J0D01*
G01*
%TO.C,TP1*%
X131700000Y-80000000D02*
G75*
G03*
X131700000Y-80000000I-1700000J0D01*
G01*
%TO.C,U2*%
X132904000Y-93362000D02*
X134804000Y-93362000D01*
X134304000Y-91042000D02*
X132904000Y-91042000D01*
%TO.C,C3*%
X137035000Y-92140721D02*
X137035000Y-92466279D01*
X136015000Y-92140721D02*
X136015000Y-92466279D01*
%TO.C,U1*%
X132861800Y-90187000D02*
X134761800Y-90187000D01*
X134261800Y-87867000D02*
X132861800Y-87867000D01*
%TO.C,R1*%
X126560000Y-92857064D02*
X126560000Y-88752936D01*
X129980000Y-92857064D02*
X129980000Y-88752936D01*
%TO.C,J2*%
X119180000Y-99000000D02*
G75*
G03*
X119180000Y-99000000I-2180000J0D01*
G01*
X124260000Y-99000000D02*
G75*
G03*
X124260000Y-99000000I-2180000J0D01*
G01*
X114400000Y-103800000D02*
X124680000Y-103800000D01*
X114400000Y-101300000D02*
X124680000Y-101300000D01*
X114400000Y-95100000D02*
X124680000Y-95100000D01*
X114400000Y-93040000D02*
X124680000Y-93040000D01*
X114400000Y-104360000D02*
X124680000Y-104360000D01*
X114400000Y-93040000D02*
X114400000Y-104360000D01*
X124680000Y-93040000D02*
X124680000Y-104360000D01*
X118654000Y-97612000D02*
X118547000Y-97719000D01*
X115718000Y-100547000D02*
X115612000Y-100654000D01*
X118388000Y-97346000D02*
X118281000Y-97453000D01*
X115452000Y-100281000D02*
X115346000Y-100388000D01*
X123734000Y-97612000D02*
X123339000Y-98008000D01*
X121073000Y-100274000D02*
X120693000Y-100654000D01*
X123468000Y-97346000D02*
X123088000Y-97726000D01*
X120822000Y-99992000D02*
X120427000Y-100388000D01*
X114160000Y-103860000D02*
X114160000Y-104600000D01*
X114160000Y-104600000D02*
X114660000Y-104600000D01*
%TO.C,J1*%
X124180000Y-81000000D02*
G75*
G03*
X124180000Y-81000000I-2180000J0D01*
G01*
X119100000Y-81000000D02*
G75*
G03*
X119100000Y-81000000I-2180000J0D01*
G01*
X124600000Y-76200000D02*
X114320000Y-76200000D01*
X124600000Y-78700000D02*
X114320000Y-78700000D01*
X124600000Y-84900000D02*
X114320000Y-84900000D01*
X124600000Y-86960000D02*
X114320000Y-86960000D01*
X124600000Y-75640000D02*
X114320000Y-75640000D01*
X124600000Y-86960000D02*
X124600000Y-75640000D01*
X114320000Y-86960000D02*
X114320000Y-75640000D01*
X120346000Y-82388000D02*
X120453000Y-82281000D01*
X123282000Y-79453000D02*
X123388000Y-79346000D01*
X120612000Y-82654000D02*
X120719000Y-82547000D01*
X123548000Y-79719000D02*
X123654000Y-79612000D01*
X115266000Y-82388000D02*
X115661000Y-81992000D01*
X117927000Y-79726000D02*
X118307000Y-79346000D01*
X115532000Y-82654000D02*
X115912000Y-82274000D01*
X118178000Y-80008000D02*
X118573000Y-79612000D01*
X124840000Y-76140000D02*
X124840000Y-75400000D01*
X124840000Y-75400000D02*
X124340000Y-75400000D01*
%TO.C,C2*%
X137035000Y-88864221D02*
X137035000Y-89189779D01*
X136015000Y-88864221D02*
X136015000Y-89189779D01*
%TO.C,C1*%
X138940000Y-88864221D02*
X138940000Y-89189779D01*
X137920000Y-88864221D02*
X137920000Y-89189779D01*
%TO.C,TP4*%
D10*
X128738095Y-96952380D02*
X129309523Y-96952380D01*
X129023809Y-97952380D02*
X129023809Y-96952380D01*
X129642857Y-97952380D02*
X129642857Y-96952380D01*
X130023809Y-96952380D01*
X130119047Y-97000000D01*
X130166666Y-97047619D01*
X130214285Y-97142857D01*
X130214285Y-97285714D01*
X130166666Y-97380952D01*
X130119047Y-97428571D01*
X130023809Y-97476190D01*
X129642857Y-97476190D01*
X131071428Y-97285714D02*
X131071428Y-97952380D01*
X130833333Y-96904761D02*
X130595238Y-97619047D01*
X131214285Y-97619047D01*
%TO.C,TP3*%
X136238095Y-81952380D02*
X136809523Y-81952380D01*
X136523809Y-82952380D02*
X136523809Y-81952380D01*
X137142857Y-82952380D02*
X137142857Y-81952380D01*
X137523809Y-81952380D01*
X137619047Y-82000000D01*
X137666666Y-82047619D01*
X137714285Y-82142857D01*
X137714285Y-82285714D01*
X137666666Y-82380952D01*
X137619047Y-82428571D01*
X137523809Y-82476190D01*
X137142857Y-82476190D01*
X138047619Y-81952380D02*
X138666666Y-81952380D01*
X138333333Y-82333333D01*
X138476190Y-82333333D01*
X138571428Y-82380952D01*
X138619047Y-82428571D01*
X138666666Y-82523809D01*
X138666666Y-82761904D01*
X138619047Y-82857142D01*
X138571428Y-82904761D01*
X138476190Y-82952380D01*
X138190476Y-82952380D01*
X138095238Y-82904761D01*
X138047619Y-82857142D01*
%TO.C,TP2*%
X136238095Y-96952380D02*
X136809523Y-96952380D01*
X136523809Y-97952380D02*
X136523809Y-96952380D01*
X137142857Y-97952380D02*
X137142857Y-96952380D01*
X137523809Y-96952380D01*
X137619047Y-97000000D01*
X137666666Y-97047619D01*
X137714285Y-97142857D01*
X137714285Y-97285714D01*
X137666666Y-97380952D01*
X137619047Y-97428571D01*
X137523809Y-97476190D01*
X137142857Y-97476190D01*
X138095238Y-97047619D02*
X138142857Y-97000000D01*
X138238095Y-96952380D01*
X138476190Y-96952380D01*
X138571428Y-97000000D01*
X138619047Y-97047619D01*
X138666666Y-97142857D01*
X138666666Y-97238095D01*
X138619047Y-97380952D01*
X138047619Y-97952380D01*
X138666666Y-97952380D01*
%TO.C,TP1*%
X128738095Y-81952380D02*
X129309523Y-81952380D01*
X129023809Y-82952380D02*
X129023809Y-81952380D01*
X129642857Y-82952380D02*
X129642857Y-81952380D01*
X130023809Y-81952380D01*
X130119047Y-82000000D01*
X130166666Y-82047619D01*
X130214285Y-82142857D01*
X130214285Y-82285714D01*
X130166666Y-82380952D01*
X130119047Y-82428571D01*
X130023809Y-82476190D01*
X129642857Y-82476190D01*
X131166666Y-82952380D02*
X130595238Y-82952380D01*
X130880952Y-82952380D02*
X130880952Y-81952380D01*
X130785714Y-82095238D01*
X130690476Y-82190476D01*
X130595238Y-82238095D01*
%TO.C,U2*%
X132842095Y-93654380D02*
X132842095Y-94463904D01*
X132889714Y-94559142D01*
X132937333Y-94606761D01*
X133032571Y-94654380D01*
X133223047Y-94654380D01*
X133318285Y-94606761D01*
X133365904Y-94559142D01*
X133413523Y-94463904D01*
X133413523Y-93654380D01*
X133842095Y-93749619D02*
X133889714Y-93702000D01*
X133984952Y-93654380D01*
X134223047Y-93654380D01*
X134318285Y-93702000D01*
X134365904Y-93749619D01*
X134413523Y-93844857D01*
X134413523Y-93940095D01*
X134365904Y-94082952D01*
X133794476Y-94654380D01*
X134413523Y-94654380D01*
%TO.C,C3*%
X138312142Y-92470166D02*
X138359761Y-92517785D01*
X138407380Y-92660642D01*
X138407380Y-92755880D01*
X138359761Y-92898738D01*
X138264523Y-92993976D01*
X138169285Y-93041595D01*
X137978809Y-93089214D01*
X137835952Y-93089214D01*
X137645476Y-93041595D01*
X137550238Y-92993976D01*
X137455000Y-92898738D01*
X137407380Y-92755880D01*
X137407380Y-92660642D01*
X137455000Y-92517785D01*
X137502619Y-92470166D01*
X137407380Y-92136833D02*
X137407380Y-91517785D01*
X137788333Y-91851119D01*
X137788333Y-91708261D01*
X137835952Y-91613023D01*
X137883571Y-91565404D01*
X137978809Y-91517785D01*
X138216904Y-91517785D01*
X138312142Y-91565404D01*
X138359761Y-91613023D01*
X138407380Y-91708261D01*
X138407380Y-91993976D01*
X138359761Y-92089214D01*
X138312142Y-92136833D01*
%TO.C,U1*%
X132799895Y-86320380D02*
X132799895Y-87129904D01*
X132847514Y-87225142D01*
X132895133Y-87272761D01*
X132990371Y-87320380D01*
X133180847Y-87320380D01*
X133276085Y-87272761D01*
X133323704Y-87225142D01*
X133371323Y-87129904D01*
X133371323Y-86320380D01*
X134371323Y-87320380D02*
X133799895Y-87320380D01*
X134085609Y-87320380D02*
X134085609Y-86320380D01*
X133990371Y-86463238D01*
X133895133Y-86558476D01*
X133799895Y-86606095D01*
%TO.C,R1*%
X128722380Y-85891666D02*
X128246190Y-86225000D01*
X128722380Y-86463095D02*
X127722380Y-86463095D01*
X127722380Y-86082142D01*
X127770000Y-85986904D01*
X127817619Y-85939285D01*
X127912857Y-85891666D01*
X128055714Y-85891666D01*
X128150952Y-85939285D01*
X128198571Y-85986904D01*
X128246190Y-86082142D01*
X128246190Y-86463095D01*
X128722380Y-84939285D02*
X128722380Y-85510714D01*
X128722380Y-85225000D02*
X127722380Y-85225000D01*
X127865238Y-85320238D01*
X127960476Y-85415476D01*
X128008095Y-85510714D01*
%TO.C,J2*%
X115396666Y-91467380D02*
X115396666Y-92181666D01*
X115349047Y-92324523D01*
X115253809Y-92419761D01*
X115110952Y-92467380D01*
X115015714Y-92467380D01*
X115825238Y-91562619D02*
X115872857Y-91515000D01*
X115968095Y-91467380D01*
X116206190Y-91467380D01*
X116301428Y-91515000D01*
X116349047Y-91562619D01*
X116396666Y-91657857D01*
X116396666Y-91753095D01*
X116349047Y-91895952D01*
X115777619Y-92467380D01*
X116396666Y-92467380D01*
%TO.C,J1*%
X123571666Y-87437380D02*
X123571666Y-88151666D01*
X123524047Y-88294523D01*
X123428809Y-88389761D01*
X123285952Y-88437380D01*
X123190714Y-88437380D01*
X124571666Y-88437380D02*
X124000238Y-88437380D01*
X124285952Y-88437380D02*
X124285952Y-87437380D01*
X124190714Y-87580238D01*
X124095476Y-87675476D01*
X124000238Y-87723095D01*
%TO.C,C2*%
X136882142Y-86653666D02*
X136929761Y-86701285D01*
X136977380Y-86844142D01*
X136977380Y-86939380D01*
X136929761Y-87082238D01*
X136834523Y-87177476D01*
X136739285Y-87225095D01*
X136548809Y-87272714D01*
X136405952Y-87272714D01*
X136215476Y-87225095D01*
X136120238Y-87177476D01*
X136025000Y-87082238D01*
X135977380Y-86939380D01*
X135977380Y-86844142D01*
X136025000Y-86701285D01*
X136072619Y-86653666D01*
X136072619Y-86272714D02*
X136025000Y-86225095D01*
X135977380Y-86129857D01*
X135977380Y-85891761D01*
X136025000Y-85796523D01*
X136072619Y-85748904D01*
X136167857Y-85701285D01*
X136263095Y-85701285D01*
X136405952Y-85748904D01*
X136977380Y-86320333D01*
X136977380Y-85701285D01*
%TO.C,C1*%
X138787142Y-86653666D02*
X138834761Y-86701285D01*
X138882380Y-86844142D01*
X138882380Y-86939380D01*
X138834761Y-87082238D01*
X138739523Y-87177476D01*
X138644285Y-87225095D01*
X138453809Y-87272714D01*
X138310952Y-87272714D01*
X138120476Y-87225095D01*
X138025238Y-87177476D01*
X137930000Y-87082238D01*
X137882380Y-86939380D01*
X137882380Y-86844142D01*
X137930000Y-86701285D01*
X137977619Y-86653666D01*
X138882380Y-85701285D02*
X138882380Y-86272714D01*
X138882380Y-85987000D02*
X137882380Y-85987000D01*
X138025238Y-86082238D01*
X138120476Y-86177476D01*
X138168095Y-86272714D01*
%TD*%
M02*
