%TF.GenerationSoftware,KiCad,Pcbnew,5.1.6-c6e7f7d~87~ubuntu18.04.1*%
%TF.CreationDate,2020-08-03T15:12:15+01:00*%
%TF.ProjectId,current_sense,63757272-656e-4745-9f73-656e73652e6b,rev?*%
%TF.SameCoordinates,Original*%
%TF.FileFunction,Paste,Top*%
%TF.FilePolarity,Positive*%
%FSLAX46Y46*%
G04 Gerber Fmt 4.6, Leading zero omitted, Abs format (unit mm)*
G04 Created by KiCad (PCBNEW 5.1.6-c6e7f7d~87~ubuntu18.04.1) date 2020-08-03 15:12:15*
%MOMM*%
%LPD*%
G01*
G04 APERTURE LIST*
%ADD10R,0.650000X0.400000*%
G04 APERTURE END LIST*
D10*
%TO.C,U2*%
X132654000Y-92852000D03*
X132654000Y-91552000D03*
X134554000Y-92202000D03*
X132654000Y-92202000D03*
X134554000Y-91552000D03*
X134554000Y-92852000D03*
%TD*%
%TO.C,C3*%
G36*
G01*
X136268750Y-92653500D02*
X136781250Y-92653500D01*
G75*
G02*
X137000000Y-92872250I0J-218750D01*
G01*
X137000000Y-93309750D01*
G75*
G02*
X136781250Y-93528500I-218750J0D01*
G01*
X136268750Y-93528500D01*
G75*
G02*
X136050000Y-93309750I0J218750D01*
G01*
X136050000Y-92872250D01*
G75*
G02*
X136268750Y-92653500I218750J0D01*
G01*
G37*
G36*
G01*
X136268750Y-91078500D02*
X136781250Y-91078500D01*
G75*
G02*
X137000000Y-91297250I0J-218750D01*
G01*
X137000000Y-91734750D01*
G75*
G02*
X136781250Y-91953500I-218750J0D01*
G01*
X136268750Y-91953500D01*
G75*
G02*
X136050000Y-91734750I0J218750D01*
G01*
X136050000Y-91297250D01*
G75*
G02*
X136268750Y-91078500I218750J0D01*
G01*
G37*
%TD*%
%TO.C,U1*%
X132611800Y-89677000D03*
X132611800Y-88377000D03*
X134511800Y-89027000D03*
X132611800Y-89027000D03*
X134511800Y-88377000D03*
X134511800Y-89677000D03*
%TD*%
%TO.C,R1*%
G36*
G01*
X129695001Y-88580000D02*
X126844999Y-88580000D01*
G75*
G02*
X126595000Y-88330001I0J249999D01*
G01*
X126595000Y-87479999D01*
G75*
G02*
X126844999Y-87230000I249999J0D01*
G01*
X129695001Y-87230000D01*
G75*
G02*
X129945000Y-87479999I0J-249999D01*
G01*
X129945000Y-88330001D01*
G75*
G02*
X129695001Y-88580000I-249999J0D01*
G01*
G37*
G36*
G01*
X129695001Y-94380000D02*
X126844999Y-94380000D01*
G75*
G02*
X126595000Y-94130001I0J249999D01*
G01*
X126595000Y-93279999D01*
G75*
G02*
X126844999Y-93030000I249999J0D01*
G01*
X129695001Y-93030000D01*
G75*
G02*
X129945000Y-93279999I0J-249999D01*
G01*
X129945000Y-94130001D01*
G75*
G02*
X129695001Y-94380000I-249999J0D01*
G01*
G37*
%TD*%
%TO.C,C2*%
G36*
G01*
X136268750Y-89377000D02*
X136781250Y-89377000D01*
G75*
G02*
X137000000Y-89595750I0J-218750D01*
G01*
X137000000Y-90033250D01*
G75*
G02*
X136781250Y-90252000I-218750J0D01*
G01*
X136268750Y-90252000D01*
G75*
G02*
X136050000Y-90033250I0J218750D01*
G01*
X136050000Y-89595750D01*
G75*
G02*
X136268750Y-89377000I218750J0D01*
G01*
G37*
G36*
G01*
X136268750Y-87802000D02*
X136781250Y-87802000D01*
G75*
G02*
X137000000Y-88020750I0J-218750D01*
G01*
X137000000Y-88458250D01*
G75*
G02*
X136781250Y-88677000I-218750J0D01*
G01*
X136268750Y-88677000D01*
G75*
G02*
X136050000Y-88458250I0J218750D01*
G01*
X136050000Y-88020750D01*
G75*
G02*
X136268750Y-87802000I218750J0D01*
G01*
G37*
%TD*%
%TO.C,C1*%
G36*
G01*
X138173750Y-89377000D02*
X138686250Y-89377000D01*
G75*
G02*
X138905000Y-89595750I0J-218750D01*
G01*
X138905000Y-90033250D01*
G75*
G02*
X138686250Y-90252000I-218750J0D01*
G01*
X138173750Y-90252000D01*
G75*
G02*
X137955000Y-90033250I0J218750D01*
G01*
X137955000Y-89595750D01*
G75*
G02*
X138173750Y-89377000I218750J0D01*
G01*
G37*
G36*
G01*
X138173750Y-87802000D02*
X138686250Y-87802000D01*
G75*
G02*
X138905000Y-88020750I0J-218750D01*
G01*
X138905000Y-88458250D01*
G75*
G02*
X138686250Y-88677000I-218750J0D01*
G01*
X138173750Y-88677000D01*
G75*
G02*
X137955000Y-88458250I0J218750D01*
G01*
X137955000Y-88020750D01*
G75*
G02*
X138173750Y-87802000I218750J0D01*
G01*
G37*
%TD*%
M02*
